<?xml version="1.0" encoding="UTF-8"?>
<svg version="1.1" xmlns="http://www.w3.org/2000/svg" width="512" height="512">
<path d="M0 0 C6.81814164 5.86677304 14.78839623 13.05551017 18.58251953 21.39044189 C19.96417669 24.28750986 21.28656995 26.54472659 23.45703125 28.91796875 C27.47718059 30.31161123 31.28772104 30.10867413 35.50390625 29.9375 C36.67028625 29.9336882 37.83666626 29.9298764 39.03839111 29.9259491 C42.76351269 29.90785284 46.48309121 29.82366358 50.20703125 29.73046875 C53.91587331 29.66365363 57.62344539 29.61165415 61.33282471 29.58854675 C63.63718497 29.57162072 65.94155264 29.52872566 68.24481201 29.45552063 C76.9738474 29.35157987 83.29507327 31.51893303 90.078125 37.05859375 C90.67753906 37.7546875 91.27695312 38.45078125 91.89453125 39.16796875 C92.51199219 39.85375 93.12945312 40.53953125 93.765625 41.24609375 C99.66612731 50.56697962 98.8135329 60.40139057 98.64453125 70.98046875 C98.62945876 72.62563881 98.61577489 74.2708222 98.60351562 75.91601562 C98.57070907 79.91700016 98.51906891 83.91733506 98.45703125 87.91796875 C99.2984668 87.91130692 100.13990234 87.90464508 101.00683594 87.89778137 C109.00740306 87.83721493 117.00789119 87.79176593 125.00863647 87.76253223 C129.12011643 87.74699678 133.2314041 87.7259857 137.34277344 87.69165039 C141.32395263 87.65861732 145.30494903 87.64102513 149.28625488 87.63333702 C150.79141104 87.62787111 152.29655927 87.61720272 153.80163574 87.60077858 C167.64208086 87.45600308 180.99009696 89.03775924 194.01953125 94.04296875 C194.80908203 94.34154785 195.59863281 94.64012695 196.41210938 94.94775391 C208.81760934 99.83348163 219.5561228 107.01494713 229.45703125 115.91796875 C230.22402344 116.60246094 230.99101562 117.28695312 231.78125 117.9921875 C251.92090396 137.00711384 263.46084055 164.90907067 264.55490875 192.37513733 C264.59921423 194.91131019 264.61491999 197.44586679 264.61816406 199.98242188 C264.62312897 200.9334227 264.62809387 201.88442352 264.63320923 202.86424255 C264.64768421 205.97590891 264.65460605 209.08752441 264.66015625 212.19921875 C264.66298363 213.26979019 264.665811 214.34036163 264.66872406 215.44337463 C264.68365249 221.10238894 264.6929236 226.76137813 264.69726562 232.42041016 C264.70275907 238.24397045 264.72682387 244.067298 264.75523758 249.89078522 C264.77391022 254.39138454 264.7790719 258.89192809 264.7806015 263.39256287 C264.78361511 265.53902975 264.79159964 267.68549595 264.80478668 269.83192444 C264.8219538 272.83930003 264.8199416 275.84611013 264.81347656 278.85351562 C264.82269135 279.72757553 264.83190613 280.60163544 264.84140015 281.50218201 C264.7758177 291.30331794 262.3089653 299.72984168 255.45703125 306.91796875 C249.2789337 312.38641996 243.37204807 314.19938416 235.08203125 314.04296875 C233.83679688 314.02492188 232.5915625 314.006875 231.30859375 313.98828125 C229.89707031 313.95347656 229.89707031 313.95347656 228.45703125 313.91796875 C228.40546875 314.45421875 228.35390625 314.99046875 228.30078125 315.54296875 C225.96698312 331.66739217 216.6054957 344.19325159 203.921875 353.84765625 C190.41953609 362.67357534 174.08384511 364.50208169 158.5078125 361.671875 C143.25331904 357.90219864 130.81378706 347.90984823 122.45703125 334.91796875 C118.527043 327.80844226 117.10039397 322.13478236 115.45703125 313.91796875 C57.70703125 313.91796875 -0.04296875 313.91796875 -59.54296875 313.91796875 C-59.87296875 316.55796875 -60.20296875 319.19796875 -60.54296875 321.91796875 C-64.67819212 335.63697161 -73.49525622 347.41403591 -85.734375 354.859375 C-101.58728262 363.34378031 -117.34632989 365.0806349 -134.54296875 359.91796875 C-150.24332997 353.72840327 -161.28457577 343.45184246 -168.5078125 328.30859375 C-170.60408174 323.46739837 -171.64219373 319.2310154 -171.54296875 313.91796875 C-172.70755615 313.93891602 -173.87214355 313.95986328 -175.07202148 313.98144531 C-179.42736324 314.05430382 -183.78265203 314.09993393 -188.13842773 314.13769531 C-190.01710088 314.15770695 -191.89571255 314.18492512 -193.77416992 314.21972656 C-196.48762248 314.26870845 -199.20024571 314.29104204 -201.9140625 314.30859375 C-202.7425621 314.32923889 -203.57106171 314.34988403 -204.42466736 314.37115479 C-212.7299663 314.37429073 -219.83087954 311.37111075 -225.97265625 305.7578125 C-232.67361467 297.90668957 -233.69218142 289.35071174 -233.69013977 279.46920776 C-233.6956548 278.03498921 -233.6956548 278.03498921 -233.70128125 276.57179654 C-233.71230109 273.36540448 -233.71615906 270.15904486 -233.7199707 266.95263672 C-233.72623663 264.65450437 -233.73288355 262.35637303 -233.73988342 260.0582428 C-233.76091063 252.50888777 -233.77128449 244.95953258 -233.78125 237.41015625 C-233.78529804 234.80981562 -233.78941498 232.20947509 -233.79360008 229.60913467 C-233.81046662 218.79164584 -233.82510126 207.97415992 -233.83234882 197.15666008 C-233.83425856 194.35183587 -233.83617891 191.54701168 -233.83813477 188.7421875 C-233.83861851 188.04510595 -233.83910225 187.3480244 -233.83960065 186.62981917 C-233.84789666 175.34372899 -233.87322812 164.05774494 -233.90571544 152.77170108 C-233.9388324 141.17190834 -233.95646931 129.57217494 -233.95999306 117.97233498 C-233.96234219 111.4645574 -233.97128517 104.95694767 -233.99645424 98.44921494 C-234.01975989 92.32440341 -234.02395793 86.19986996 -234.01369286 80.07502556 C-234.013198 77.83172747 -234.01950349 75.58841557 -234.0332489 73.34515953 C-234.18808135 46.5703305 -234.18808135 46.5703305 -224.5619812 36.62553406 C-216.8870288 30.13449808 -209.29927935 29.21085193 -199.53515625 29.4296875 C-198.32852325 29.43676224 -197.12189026 29.44383698 -195.87869263 29.4511261 C-192.05779729 29.47891921 -188.23841465 29.54163406 -184.41796875 29.60546875 C-181.81382338 29.6305709 -179.20965483 29.65338068 -176.60546875 29.67382812 C-170.25079359 29.72869662 -163.89698928 29.81217236 -157.54296875 29.91796875 C-157.25035156 28.98621826 -156.95773438 28.05446777 -156.65625 27.09448242 C-154.61348881 21.26589342 -150.39387831 16.67110848 -146.54296875 11.91796875 C-145.78757812 10.98210937 -145.0321875 10.04625 -144.25390625 9.08203125 C-107.3308382 -34.01546289 -42.35268728 -34.6758561 0 0 Z " fill="#5F276D" transform="translate(240.54296875,87.08203125)"/>
<path d="M0 0 C0.96955124 0.00424484 1.93910248 0.00848969 2.93803406 0.01286316 C6.02538175 0.02961475 9.11206937 0.06726086 12.19921875 0.10546875 C14.29621451 0.12052012 16.39322053 0.13420773 18.49023438 0.14648438 C23.62264898 0.17950683 28.75457206 0.23126528 33.88671875 0.29296875 C33.68175781 1.28296875 33.47679687 2.27296875 33.265625 3.29296875 C27.20926971 32.82898426 29.05790845 61.21117871 45.7890625 87.23046875 C53.99651249 99.21304006 63.59581927 109.47148726 75.88671875 117.29296875 C76.68851562 117.81632812 77.4903125 118.3396875 78.31640625 118.87890625 C89.80718644 126.11112254 101.74692721 129.52669685 114.88671875 132.29296875 C115.66917969 132.48761719 116.45164063 132.68226563 117.2578125 132.8828125 C142.0601984 136.75242694 168.88005279 129.90557517 189.1875 115.34765625 C190.07824219 114.66960937 190.96898437 113.9915625 191.88671875 113.29296875 C192.82902344 112.59429687 193.77132812 111.895625 194.7421875 111.17578125 C214.45244823 95.89693087 227.13414906 72.71353768 230.88671875 48.29296875 C231.06847656 47.39320313 231.25023437 46.4934375 231.4375 45.56640625 C232.10179108 40.72574601 232.15264362 35.92404221 232.19921875 31.04296875 C232.22822266 30.07617188 232.25722656 29.109375 232.28710938 28.11328125 C232.36785177 18.49872531 230.18318248 9.56707434 227.88671875 0.29296875 C233.90068884 0.21864221 239.91438971 0.16428287 245.92871094 0.12817383 C247.97335469 0.11311587 250.0179663 0.09266518 252.0625 0.06665039 C255.00659127 0.03013564 257.95025432 0.01321224 260.89453125 0 C261.80413605 -0.01548386 262.71374084 -0.03096771 263.65090942 -0.04692078 C269.61020292 -0.04849013 273.94487623 0.60404716 278.5243578 4.789814 C280.67724569 8.74545553 280.28861273 12.6430721 280.2474823 17.07513428 C280.25004557 18.07902231 280.25260885 19.08291033 280.2552498 20.11721921 C280.26020251 23.49074294 280.2436699 26.86382199 280.22729492 30.23730469 C280.22644897 32.651657 280.22692316 35.06601008 280.22862244 37.48036194 C280.22930623 42.68324862 280.2207813 47.88603421 280.20390892 53.08889008 C280.17953018 60.61133955 280.17171481 68.13373445 280.16794495 75.65621915 C280.16137869 87.86085021 280.14141281 100.06542113 280.11303711 112.27001953 C280.08550105 124.12581079 280.06429965 135.98158563 280.05151367 147.83740234 C280.05070968 148.57561859 280.04990569 149.31383485 280.04907733 150.07442129 C280.04213881 156.49581709 280.0356804 162.91721335 280.02926922 169.3386097 C280.00103904 196.99011932 279.94127812 224.64146953 279.88671875 252.29296875 C233.35671875 252.29296875 186.82671875 252.29296875 138.88671875 252.29296875 C137.89671875 248.82796875 137.89671875 248.82796875 136.88671875 245.29296875 C131.61903953 230.35801306 123.08682909 217.91120208 108.76171875 210.609375 C94.11758998 203.90411495 79.87267706 201.99951341 64.27734375 206.96484375 C50.00670625 212.5547248 38.22660463 222.12226669 31.88671875 236.29296875 C30.01709456 241.5610482 28.44970407 246.92762372 26.88671875 252.29296875 C21.85135098 252.36729293 16.81630467 252.42165276 11.78051758 252.45776367 C10.06854691 252.47282215 8.35661464 252.4932733 6.64477539 252.51928711 C4.1797537 252.55580065 1.7152434 252.57272437 -0.75 252.5859375 C-1.89247444 252.60916328 -1.89247444 252.60916328 -3.05802917 252.63285828 C-8.63784442 252.63461341 -11.6993538 251.36204942 -15.86328125 247.79296875 C-18.06796438 245.14734899 -18.23892234 242.56389222 -18.24470901 239.26770973 C-18.24855016 238.44622212 -18.2523913 237.62473451 -18.25634885 236.77835333 C-18.25548237 235.87612961 -18.25461588 234.97390588 -18.25372314 234.04434204 C-18.25669427 233.08567179 -18.25966539 232.12700154 -18.26272655 231.13928068 C-18.27142895 227.91266927 -18.27292309 224.68609489 -18.27441406 221.45947266 C-18.2790411 219.15190043 -18.2840656 216.84432898 -18.28945923 214.53675842 C-18.30259512 208.25787527 -18.30903035 201.97900281 -18.31346989 195.70010805 C-18.31639831 191.78015657 -18.32050265 187.86020803 -18.32497406 183.94025803 C-18.33708368 173.08852305 -18.34746581 162.23679132 -18.35084915 151.38504982 C-18.35106872 150.69052435 -18.35128828 149.99599888 -18.3515145 149.28042718 C-18.35173278 148.584236 -18.35195106 147.88804482 -18.35217595 147.17075694 C-18.35261942 145.75999681 -18.35306598 144.34923669 -18.35351562 142.93847656 C-18.35373705 142.23869015 -18.35395848 141.53890373 -18.35418662 140.81791167 C-18.35813563 129.47592988 -18.37559308 118.1340123 -18.39887515 106.79205532 C-18.42258171 95.14941477 -18.43479261 83.50680963 -18.43621707 71.86414468 C-18.43726692 65.32638052 -18.44321301 58.78870692 -18.46103668 52.25096512 C-18.47747082 46.10325048 -18.47969552 39.95569496 -18.47089767 33.80796623 C-18.47012484 31.54925423 -18.47450231 29.29053383 -18.48435593 27.03184319 C-18.49700225 23.9528916 -18.49123836 20.87450981 -18.48077393 17.79556274 C-18.48883033 16.89780046 -18.49688673 16.00003818 -18.50518727 15.07507098 C-18.46721381 10.31125873 -18.1960268 7.16820443 -15.11328125 3.29296875 C-10.60163801 -0.64527405 -5.67078602 -0.09374535 0 0 Z " fill="#3192F2" transform="translate(42.11328125,132.70703125)"/>
<path d="M0 0 C95.44188847 0 95.44188847 0 125.0625 28.625 C143.79319226 47.36463862 150.50018013 71.93222818 150.53013611 97.80670166 C150.51966408 100.02218042 150.50829592 102.2376551 150.49609375 104.453125 C150.49624906 106.77097621 150.4977434 109.08882767 150.50050354 111.40667725 C150.50187795 116.22745457 150.48947957 121.04793086 150.46655273 125.86865234 C150.43797867 132.0456697 150.44097012 138.22219512 150.45364285 144.39925003 C150.46059044 149.16902885 150.45282439 153.93869369 150.44038582 158.70845795 C150.43587586 160.98742995 150.43553053 163.26641418 150.43945122 165.54538727 C150.44235919 168.71834078 150.42588244 171.8906096 150.40405273 175.06347656 C150.41080521 176.46919167 150.41080521 176.46919167 150.41769409 177.90330505 C150.36212539 182.76072185 150.17029833 186.06676457 147 190 C142.27231273 194.37311072 138.32855863 194.36959952 132.1953125 194.140625 C131.47085938 194.09421875 130.74640625 194.0478125 130 194 C129.86464844 193.28457031 129.72929687 192.56914062 129.58984375 191.83203125 C126.32140542 176.70327182 118.5442482 163.7240016 105.5 155.125 C91.48859889 146.84287834 77.18052094 143.58645061 60.9375 147.0625 C47.56881928 150.90244021 35.12413832 158.987053 27.625 170.875 C23.58030124 178.3078667 20.3935856 185.63848638 19 194 C12.73 194 6.46 194 0 194 C0 129.98 0 65.96 0 0 Z " fill="#FE4A73" transform="translate(338,191)"/>
<path d="M0 0 C21.18750248 2.95639569 37.31794735 10.01972595 53 25 C53.61488281 25.54011719 54.22976562 26.08023438 54.86328125 26.63671875 C67.50498033 38.1740855 75.14334933 56.41137946 78 73 C78.04130962 74.66615464 78.05412306 76.33421236 78 78 C76.87980469 78.02578125 75.75960937 78.0515625 74.60546875 78.078125 C73.13277354 78.13440635 71.6601188 78.19175368 70.1875 78.25 C69.08051758 78.27126953 69.08051758 78.27126953 67.95117188 78.29296875 C63.56011359 78.48571628 63.56011359 78.48571628 59.98046875 80.82421875 C58.47806284 84.15824302 59.11525934 86.52423312 60 90 C61.0446218 91.80177871 61.0446218 91.80177871 63 93 C66.4223884 93.58218332 66.4223884 93.58218332 70.1875 93.6875 C71.45980469 93.75324219 72.73210937 93.81898438 74.04296875 93.88671875 C75.01878906 93.92410156 75.99460937 93.96148437 77 94 C77.2061621 99.76609628 76.67174216 104.55093456 75 110.0625 C74.77924805 110.7942041 74.55849609 111.5259082 74.33105469 112.27978516 C67.27006518 134.42301003 51.56434882 152.21289604 31.04736328 162.99804688 C21.14473602 167.84426465 11.09921777 170.95722845 0 171 C-0.02578125 169.95199219 -0.0515625 168.90398437 -0.078125 167.82421875 C-0.13440858 166.44527098 -0.19175588 165.06636635 -0.25 163.6875 C-0.26417969 162.99720703 -0.27835937 162.30691406 -0.29296875 161.59570312 C-0.45072422 158.330165 -0.5605077 156.46165158 -2.859375 154.046875 C-5.81617649 152.600848 -7.74979303 152.52601148 -11 153 C-14.14772618 155.31484243 -14.92224174 156.55936985 -15.609375 160.453125 C-15.65578125 161.70609375 -15.7021875 162.9590625 -15.75 164.25 C-15.83507812 166.14492188 -15.83507812 166.14492188 -15.921875 168.078125 C-15.94765625 169.04234375 -15.9734375 170.0065625 -16 171 C-21.59552995 171.20471451 -26.27995085 170.70218482 -31.625 168.9375 C-32.3144873 168.71271973 -33.00397461 168.48793945 -33.71435547 168.25634766 C-56.00553118 160.70668782 -73.97508531 146.06355403 -84.98193359 125.14599609 C-89.54467592 115.52812917 -93.20505432 104.66282464 -93 94 C-92.10796875 93.93941406 -91.2159375 93.87882812 -90.296875 93.81640625 C-89.12640625 93.73261719 -87.9559375 93.64882812 -86.75 93.5625 C-85.58984375 93.48128906 -84.4296875 93.40007812 -83.234375 93.31640625 C-80.69022624 93.06752213 -78.44046752 92.71885058 -76 92 C-75.72251758 90.58845901 -75.47906484 89.17020201 -75.25 87.75 C-75.11078125 86.96109375 -74.9715625 86.1721875 -74.828125 85.359375 C-74.8111302 82.87354421 -74.8111302 82.87354421 -76.53125 80.75 C-79.82581088 78.41461507 -82.24331391 78.39839578 -86.25 78.25 C-88.14492187 78.16492188 -88.14492187 78.16492188 -90.078125 78.078125 C-91.04234375 78.05234375 -92.0065625 78.0265625 -93 78 C-94.42996915 61.98434548 -85.65147536 45.00280087 -76.0625 32.625 C-62.45419907 16.62927785 -43.81363598 2.55716661 -22.12109375 0.76171875 C-20.07920629 0.75213242 -18.03707131 0.85951232 -16 1 C-15.94392578 2.33804688 -15.94392578 2.33804688 -15.88671875 3.703125 C-15.82097656 4.87359375 -15.75523437 6.0440625 -15.6875 7.25 C-15.62949219 8.41015625 -15.57148438 9.5703125 -15.51171875 10.765625 C-14.97571274 14.15351033 -14.48385257 15.66392813 -12 18 C-10.06255801 18.59086 -10.06255801 18.59086 -8 18.4375 C-7.319375 18.43621094 -6.63875 18.43492188 -5.9375 18.43359375 C-3.29061961 17.84124753 -2.50924826 17.27983121 -1 15 C-0.62355152 12.37060795 -0.39866913 9.94927528 -0.3125 7.3125 C-0.27833984 6.61060547 -0.24417969 5.90871094 -0.20898438 5.18554688 C-0.12670053 3.45758613 -0.0616676 1.72881928 0 0 Z " fill="#F8D235" transform="translate(181,79)"/>
<path d="M0 0 C1.22938293 -0.01906403 2.45876587 -0.03812805 3.72540283 -0.05776978 C5.06791294 -0.05724625 6.41042311 -0.05536895 7.75292969 -0.05224609 C9.14378363 -0.06003267 10.53463286 -0.0687046 11.92547607 -0.07821655 C14.84760885 -0.09314458 17.76925879 -0.09256505 20.69140625 -0.08203125 C23.65947544 -0.07282568 26.62589532 -0.08636405 29.59375 -0.12304688 C49.84528613 -0.37156912 67.5964375 -0.29119098 83.92480469 13.54931641 C84.69179688 14.19384766 85.45878906 14.83837891 86.24902344 15.50244141 C97.11945128 25.46853824 103.66787345 38.81772572 104.33334351 53.55255127 C104.4146676 56.45524033 104.43477413 59.35480848 104.42578125 62.25854492 C104.42479522 64.50841128 104.46684217 66.75500646 104.51074219 69.00439453 C104.5159411 70.44514271 104.51863751 71.8859026 104.51855469 73.32666016 C104.52564453 74.61822021 104.53273438 75.90978027 104.54003906 77.24047852 C103.92480469 80.54931641 103.92480469 80.54931641 102.01454163 82.72476196 C97.61610558 85.32213067 93.89551776 85.1022268 88.8737793 85.05102539 C87.36076485 85.05912987 87.36076485 85.05912987 85.81718445 85.06739807 C82.48687295 85.07989378 79.15742441 85.06338923 75.82714844 85.04541016 C73.51217097 85.04556511 71.19719323 85.04705351 68.88221741 85.04981995 C64.03260824 85.05120428 59.18329469 85.03863871 54.33374023 85.01586914 C48.11368137 84.9874689 41.89411317 84.99022584 35.67401791 85.00295925 C30.89481912 85.00990941 26.11573403 85.00213493 21.33654976 84.98970222 C19.0427958 84.98518242 16.74902966 84.98485553 14.45527458 84.98876762 C11.25207305 84.99167368 8.04955125 84.97520176 4.84643555 84.95336914 C3.89619507 84.95787079 2.94595459 84.96237244 1.96691895 84.9670105 C-4.4149971 84.89463298 -4.4149971 84.89463298 -7.63279724 83.21156311 C-10.66727583 79.71457283 -10.21867695 75.89180713 -10.25219727 71.47924805 C-10.25876846 70.76347092 -10.26533966 70.04769379 -10.27210999 69.31022644 C-10.29180976 66.94330743 -10.30349607 64.57645166 -10.31347656 62.20947266 C-10.31755209 61.40080687 -10.32162762 60.59214108 -10.32582664 59.75897026 C-10.3466699 55.48148734 -10.36098102 51.20403636 -10.37036133 46.92651367 C-10.38144224 42.50665326 -10.415866 38.08729402 -10.45553303 33.66761112 C-10.48165536 30.26955723 -10.49004906 26.8716238 -10.49364281 23.47347832 C-10.49851755 21.84396403 -10.51015681 20.21445543 -10.5286808 18.58503914 C-10.55298776 16.30587862 -10.55212387 14.02802931 -10.54516602 11.7487793 C-10.55103226 10.45210831 -10.5568985 9.15543732 -10.5629425 7.81947327 C-10.07519531 4.54931641 -10.07519531 4.54931641 -8.42552185 2.13368225 C-5.43145943 0.11537111 -3.59967233 0.03071851 0 0 Z " fill="#60276D" transform="translate(364.0751953125,208.45068359375)"/>
<path d="M0 0 C2.54232342 -0.08152344 5.08199202 -0.14073716 7.625 -0.1875 C8.33785156 -0.21263672 9.05070312 -0.23777344 9.78515625 -0.26367188 C15.34674414 -0.34020749 19.38869956 0.62171979 23.64395618 4.49725723 C25.78780632 8.45399178 25.40186788 12.35291533 25.36076355 16.78216553 C25.36332682 17.78605356 25.3658901 18.78994158 25.36853105 19.82425046 C25.37348376 23.19777419 25.35695115 26.57085324 25.34057617 29.94433594 C25.33973022 32.35868825 25.34020441 34.77304133 25.34190369 37.18739319 C25.34258748 42.39027987 25.33406255 47.59306546 25.31719017 52.79592133 C25.29281143 60.3183708 25.28499606 67.8407657 25.2812262 75.3632504 C25.27465994 87.56788146 25.25469406 99.77245238 25.22631836 111.97705078 C25.1987823 123.83284204 25.1775809 135.68861688 25.16479492 147.54443359 C25.16399093 148.28264984 25.16318694 149.0208661 25.16235858 149.78145254 C25.15542006 156.20284834 25.14896165 162.6242446 25.14255047 169.04564095 C25.11432029 196.69715057 25.05455937 224.34850078 25 252 C-21.53 252 -68.06 252 -116 252 C-116 251.67 -116 251.34 -116 251 C-76.73 251 -37.46 251 3 251 C2.67 243.41 2.34 235.82 2 228 C0.35 229.32 -1.3 230.64 -3 232 C-8.50273494 234.73883153 -13.97242042 234.40513233 -20 234.4375 C-21.08023438 234.47037109 -22.16046875 234.50324219 -23.2734375 234.53710938 C-31.17592834 234.59076826 -31.17592834 234.59076826 -35.21484375 231.6953125 C-37.55697738 228.15904948 -37.6810675 226.16207916 -37 222 C-35.66796875 219.83203125 -35.66796875 219.83203125 -33 218 C-29.25793312 217.35753095 -25.54060204 217.3029145 -21.75 217.25 C-20.71875 217.22035156 -19.6875 217.19070313 -18.625 217.16015625 C-16.08325505 217.08955222 -13.54242217 217.03680991 -11 217 C-10.99635437 216.40753479 -10.99270874 215.81506958 -10.98895264 215.20465088 C-10.94715293 209.04000577 -10.87782542 202.87610694 -10.79248047 196.71191406 C-10.76424896 194.41120873 -10.74304534 192.11040601 -10.72900391 189.80957031 C-10.70760514 186.50274721 -10.66096892 183.19709774 -10.609375 179.890625 C-10.60814636 178.86132874 -10.60691772 177.83203247 -10.60565186 176.77154541 C-10.46341771 169.84188063 -10.46341771 169.84188063 -8.52441406 166.31933594 C-5.75074557 164.86973202 -4.4161487 164.85916792 -1.34222412 164.9175415 C-0.12342371 164.93539892 -0.12342371 164.93539892 1.11999893 164.9536171 C1.74039928 164.96892345 2.36079964 164.98422981 3 165 C2.91608312 144.52018773 2.82094343 124.04045685 2.71247292 103.56075954 C2.66236843 94.05150902 2.61592523 84.54226703 2.578125 75.03295898 C2.54516591 66.74386807 2.50531301 58.45484375 2.45720994 50.16582638 C2.43198393 45.77757598 2.41019113 41.38936953 2.39665604 37.00106621 C2.38380031 32.86835994 2.36170814 28.73580472 2.33261681 24.60318184 C2.32356845 23.08872234 2.31785721 21.57423853 2.31578636 20.05975342 C2.31244433 17.98635643 2.29691543 15.91338265 2.2784729 13.84007263 C2.27294214 12.68137885 2.26741138 11.52268507 2.26171303 10.32887936 C1.96886215 6.60393966 1.13526043 3.54986637 0 0 Z " fill="#307EEC" transform="translate(297,133)"/>
<path d="M0 0 C1.27133789 0.00966797 1.27133789 0.00966797 2.56835938 0.01953125 C3.8899707 0.04466797 3.8899707 0.04466797 5.23828125 0.0703125 C6.57729492 0.08384766 6.57729492 0.08384766 7.94335938 0.09765625 C10.14610439 0.12121502 12.34830713 0.15410921 14.55078125 0.1953125 C14.22601933 0.82252764 13.9012574 1.44974277 13.56665421 2.09596443 C12.16629183 6.36835933 12.27482673 10.31637878 12.29681396 14.78488159 C12.29369398 15.75610022 12.290574 16.72731884 12.28735948 17.72796834 C12.27937668 20.98521104 12.28570434 24.2422676 12.29199219 27.49951172 C12.28928242 29.83369048 12.28572157 32.16786839 12.28137207 34.50204468 C12.27224314 40.84501279 12.2757947 47.18791595 12.28213024 53.53088522 C12.2866762 59.49366216 12.28320851 65.45643103 12.28027585 71.41920818 C12.27457278 83.95124809 12.28112963 96.48325874 12.29187658 109.01529385 C12.30080791 119.76265197 12.29926347 130.50996688 12.29003906 141.25732422 C12.27932885 153.74162384 12.27512648 166.2258978 12.28126359 178.71020138 C12.28438189 185.31727773 12.28479654 191.92432433 12.27819061 198.53139877 C12.27241253 204.74479001 12.27642266 210.95809966 12.28797913 217.17148209 C12.29062344 219.45192581 12.28986452 221.73237639 12.2854538 224.01281738 C12.27998789 227.12589628 12.28684546 230.23871386 12.29681396 233.35177612 C12.29235252 234.25402133 12.28789108 235.15626653 12.28329444 236.0858525 C12.31488848 241.17374858 12.90564971 245.37292609 14.55078125 250.1953125 C11.48679674 250.33062094 8.42880999 250.4295532 5.36328125 250.5078125 C4.06680664 250.5706543 4.06680664 250.5706543 2.74414062 250.63476562 C-1.79670213 250.72175495 -3.78555062 250.70262348 -7.5 247.86328125 C-9.92074821 244.54991246 -10.57362402 242.17017472 -10.58064651 238.17005348 C-10.58448766 237.34856587 -10.5883288 236.52707826 -10.59228635 235.68069708 C-10.59141987 234.77847336 -10.59055338 233.87624963 -10.58966064 232.94668579 C-10.59263177 231.98801554 -10.59560289 231.02934529 -10.59866405 230.04162443 C-10.60736645 226.81501302 -10.60886059 223.58843864 -10.61035156 220.36181641 C-10.6149786 218.05424418 -10.6200031 215.74667273 -10.62539673 213.43910217 C-10.63853262 207.16021902 -10.64496785 200.88134656 -10.64940739 194.6024518 C-10.65233581 190.68250032 -10.65644015 186.76255178 -10.66091156 182.84260178 C-10.67302118 171.9908668 -10.68340331 161.13913507 -10.68678665 150.28739357 C-10.68700622 149.5928681 -10.68722578 148.89834263 -10.687452 148.18277093 C-10.68767028 147.48657975 -10.68788856 146.79038857 -10.68811345 146.07310069 C-10.68855692 144.66234056 -10.68900348 143.25158044 -10.68945312 141.84082031 C-10.68967455 141.1410339 -10.68989598 140.44124748 -10.69012412 139.72025542 C-10.69407313 128.37827363 -10.71153058 117.03635605 -10.73481265 105.69439907 C-10.75851921 94.05175852 -10.77073011 82.40915338 -10.77215457 70.76648843 C-10.77320442 64.22872427 -10.77915051 57.69105067 -10.79697418 51.15330887 C-10.81340832 45.00559423 -10.81563302 38.85803871 -10.80683517 32.71030998 C-10.80606234 30.45159798 -10.81043981 28.19287758 -10.82029343 25.93418694 C-10.83293975 22.85523535 -10.82717586 19.77685356 -10.81671143 16.69790649 C-10.82476783 15.80014421 -10.83282423 14.90238193 -10.84112477 13.97741473 C-10.80333741 9.23694929 -10.57858103 6.01380977 -7.44921875 2.1953125 C-4.2960709 0.09321393 -3.58818794 -0.0481636 0 0 Z " fill="#34B0FB" transform="translate(34.44921875,133.8046875)"/>
<path d="M0 0 C9.0849885 6.7278023 16.27567958 15.41362796 18.67578125 26.6875 C20.4140409 39.08568934 18.13411955 49.74109663 10.6875 59.9375 C4.39446818 67.37471942 -4.21981205 73.52111281 -14 75 C-27.00107304 75.86015776 -37.59879239 74.69735928 -47.9375 65.96484375 C-56.99759426 57.33373122 -62.1432305 47.13017329 -62.625 34.5 C-62.11276206 21.74658879 -57.26013616 12.61002386 -48 4 C-33.93127565 -7.88266103 -15.96530822 -9.15949299 0 0 Z " fill="#786C83" transform="translate(434,358)"/>
<path d="M0 0 C8.5520439 5.94168166 15.05974544 13.90892965 17.734375 24.14453125 C19.55912266 36.60755776 18.62058569 48.14844336 11.10546875 58.62890625 C2.97076228 68.18825483 -6.06344509 73.99069695 -18.64453125 75.1640625 C-30.75079214 75.77156079 -40.54618539 72.58087676 -49.91015625 64.7578125 C-57.16498691 57.57509745 -62.310594 47.78430946 -62.48266602 37.51904297 C-62.46776123 36.68775879 -62.45285645 35.85647461 -62.4375 35 C-62.42581787 34.1248877 -62.41413574 33.24977539 -62.40209961 32.34814453 C-62.02012067 21.08861279 -58.17132972 13.08448498 -50.32421875 5.00390625 C-36.10080285 -7.72230797 -16.49045035 -9.93509938 0 0 Z " fill="#786C83" transform="translate(146.875,358.1875)"/>
<path d="M0 0 C95.44188847 0 95.44188847 0 125.0625 28.625 C143.79319226 47.36463862 150.50018013 71.93222818 150.53013611 97.80670166 C150.51966408 100.02218042 150.50829592 102.2376551 150.49609375 104.453125 C150.49624906 106.77097621 150.4977434 109.08882767 150.50050354 111.40667725 C150.50187795 116.22745457 150.48947957 121.04793086 150.46655273 125.86865234 C150.43797867 132.0456697 150.44097012 138.22219512 150.45364285 144.39925003 C150.46059044 149.16902885 150.45282439 153.93869369 150.44038582 158.70845795 C150.43587586 160.98742995 150.43553053 163.26641418 150.43945122 165.54538727 C150.44235919 168.71834078 150.42588244 171.8906096 150.40405273 175.06347656 C150.41080521 176.46919167 150.41080521 176.46919167 150.41769409 177.90330505 C150.36212539 182.76072185 150.17029833 186.06676457 147 190 C142.27231273 194.37311072 138.32855863 194.36959952 132.1953125 194.140625 C131.47085938 194.09421875 130.74640625 194.0478125 130 194 C128.43197379 187.9471972 127.71153075 182.34280638 127.75708008 176.09960938 C127.75518173 175.26109436 127.75328339 174.42257935 127.75132751 173.55865479 C127.74765825 170.82025444 127.75826276 168.08212625 127.76953125 165.34375 C127.77072463 163.43086783 127.77117588 161.51798506 127.7709198 159.60510254 C127.77247763 155.6143014 127.78071832 151.62359087 127.79418945 147.6328125 C127.81127071 142.50679878 127.8150008 137.38088352 127.81424427 132.25484467 C127.81451537 128.31391452 127.81998535 124.37300608 127.82724571 120.43208313 C127.8304349 118.54055444 127.83240037 116.6490233 127.83313942 114.75749207 C127.83529512 112.12669622 127.84401979 109.49600741 127.85473633 106.86523438 C127.85428314 106.07880554 127.85382996 105.29237671 127.85336304 104.4821167 C127.8855166 99.1144834 127.8855166 99.1144834 129 98 C129.27017773 93.51765827 129.2715775 89.02907081 129.29516602 84.53955078 C129.30656008 83.03457137 129.32680627 81.52962818 129.35668945 80.02490234 C129.70330618 62.57013575 125.5841129 47.7273198 113.3125 34.6875 C100.65428547 22.75698918 86.35221306 18.40684552 69.265625 18.390625 C67.89270112 18.37560215 66.51979504 18.35886659 65.14691162 18.34051514 C61.57632504 18.29728826 58.00598192 18.27694349 54.43518066 18.26177979 C50.77435161 18.24204513 47.1137795 18.20009514 43.453125 18.16015625 C36.30215804 18.0853399 29.15127851 18.03681645 22 18 C22 12.39 22 6.78 22 1 C15.07 1 8.14 1 1 1 C1 64.36 1 127.72 1 193 C6.94 193 12.88 193 19 193 C19 193.33 19 193.66 19 194 C12.73 194 6.46 194 0 194 C0 129.98 0 65.96 0 0 Z " fill="#E82A6A" transform="translate(338,191)"/>
<path d="M0 0 C7.816875 -0.103125 15.63375 -0.20625 23.6875 -0.3125 C26.12729248 -0.35802002 28.56708496 -0.40354004 31.08081055 -0.45043945 C46.65048781 -0.62035831 59.30073483 0.58492751 71 12 C82.01085879 24.29463605 83 35.35266798 83 52 C55.61 52 28.22 52 0 52 C0 34.84 0 17.68 0 0 Z " fill="#FFE1E1" transform="translate(370,225)"/>
<path d="M0 0 C6.93 0 13.86 0 21 0 C21.103125 2.7225 21.20625 5.445 21.3125 8.25 C21.35802002 9.10110352 21.40354004 9.95220703 21.45043945 10.82910156 C21.46292725 11.5094043 21.47541504 12.18970703 21.48828125 12.890625 C21.51446533 13.58188477 21.54064941 14.27314453 21.56762695 14.98535156 C21 17 21 17 18.50099182 18.6759491 C15.69791376 20.81793556 15.69791376 20.81793556 15.39199829 24.27015686 C15.40412857 26.21516335 15.40412857 26.21516335 15.41650391 28.19946289 C15.41416748 28.91699234 15.41183105 29.63452179 15.40942383 30.37379456 C15.40781149 32.74082702 15.44181478 35.10590091 15.4765625 37.47265625 C15.48335323 39.11884356 15.48807464 40.76504059 15.49081421 42.41123962 C15.50422315 46.74232305 15.54851885 51.07258621 15.59838867 55.40338135 C15.63378948 58.94078293 15.64686768 62.47810164 15.65880775 66.01564884 C15.67359445 70.23053637 15.69881514 74.4453364 15.7265625 78.66015625 C15.73147327 79.46549364 15.73638405 80.27083103 15.74144363 81.10057259 C15.75771629 83.37712239 15.78112122 85.65347465 15.80712891 87.92993164 C15.81998932 89.22580704 15.83284973 90.52168243 15.84609985 91.85682678 C15.85991682 95.02884094 15.85991682 95.02884094 17 98 C18.00740234 98.62068359 18.00740234 98.62068359 19.03515625 99.25390625 C21 101 21 101 21.49609375 104.21484375 C21.47675781 105.44332031 21.45742188 106.67179687 21.4375 107.9375 C21.43621094 109.16339844 21.43492187 110.38929688 21.43359375 111.65234375 C20.97587945 115.18622807 20.25683857 116.36603958 18 119 C17.5 122 17.5 122 18 125 C18.74209213 125.92648598 18.74209213 125.92648598 19.49917603 126.87168884 C21.33485731 129.47485952 21.37963302 130.8942624 21.38818359 134.05297852 C21.39764008 135.05825089 21.40709656 136.06352325 21.4168396 137.09925842 C21.41076691 138.18154221 21.40469421 139.26382599 21.3984375 140.37890625 C21.40130768 141.50135239 21.40417786 142.62379852 21.40713501 143.78025818 C21.40917691 146.15827945 21.40363831 148.53631747 21.39111328 150.91430664 C21.37516721 154.52464264 21.39090395 158.1338411 21.41015625 161.74414062 C21.40817179 164.05989828 21.40432393 166.37565523 21.3984375 168.69140625 C21.40451019 169.75952042 21.41058289 170.82763458 21.4168396 171.92811584 C21.35079382 179.10322618 20.13742917 185.14515641 18 192 C12.06 192 6.12 192 0 192 C0 128.64 0 65.28 0 0 Z " fill="#F872A2" transform="translate(339,192)"/>
<path d="M0 0 C-2.37362964 2.6071014 -4.91908882 4.25854501 -7.9375 6.0625 C-30.55585933 20.35563209 -43.9046431 41.17636744 -50 67 C-55.04986679 90.45744575 -48.98105684 116.27673841 -36.25 136.3125 C-27.29577689 148.91409971 -16.47375996 159.21122299 -2.93359375 166.7734375 C-1 168 -1 168 0 170 C-20.43516439 168.74886749 -38.86810531 156.82657913 -52.56640625 142.2734375 C-63.9184524 128.94294676 -73.34466559 110.9226105 -73 93 C-72.10796875 92.93941406 -71.2159375 92.87882812 -70.296875 92.81640625 C-69.12640625 92.73261719 -67.9559375 92.64882812 -66.75 92.5625 C-65.58984375 92.48128906 -64.4296875 92.40007812 -63.234375 92.31640625 C-60.69022624 92.06752213 -58.44046752 91.71885058 -56 91 C-55.72251758 89.58845901 -55.47906484 88.17020201 -55.25 86.75 C-55.11078125 85.96109375 -54.9715625 85.1721875 -54.828125 84.359375 C-54.8111302 81.87354421 -54.8111302 81.87354421 -56.53125 79.75 C-59.82581088 77.41461507 -62.24331391 77.39839578 -66.25 77.25 C-68.14492187 77.16492188 -68.14492187 77.16492188 -70.078125 77.078125 C-71.04234375 77.05234375 -72.0065625 77.0265625 -73 77 C-74.42996915 60.98434548 -65.65147536 44.00280087 -56.0625 31.625 C-42.82510075 16.06525 -21.84611196 -1.01704432 0 0 Z " fill="#F7DF7C" transform="translate(161,80)"/>
<path d="M0 0 C19.89164415 1.04692864 36.365439 11.21028042 50 25 C51.22009766 26.20462891 51.22009766 26.20462891 52.46484375 27.43359375 C64.93400644 40.41431183 73.41562161 58.88426993 74 77 C72.87980469 77.02578125 71.75960937 77.0515625 70.60546875 77.078125 C69.13277354 77.13440635 67.6601188 77.19175368 66.1875 77.25 C65.08051758 77.27126953 65.08051758 77.27126953 63.95117188 77.29296875 C59.56011359 77.48571628 59.56011359 77.48571628 55.98046875 79.82421875 C54.47806284 83.15824302 55.11525934 85.52423312 56 89 C57.0446218 90.80177871 57.0446218 90.80177871 59 92 C62.4223884 92.58218332 62.4223884 92.58218332 66.1875 92.6875 C67.45980469 92.75324219 68.73210937 92.81898438 70.04296875 92.88671875 C71.01878906 92.92410156 71.99460937 92.96148437 73 93 C73.2061621 98.76609628 72.67174216 103.55093456 71 109.0625 C70.66887207 110.16005615 70.66887207 110.16005615 70.33105469 111.27978516 C63.27363446 133.41181678 47.5740354 151.20674822 27.06933594 161.99365234 C23.46295507 163.74748693 19.76995421 165.20105889 16 166.5625 C15.30632324 166.81418945 14.61264648 167.06587891 13.89794922 167.32519531 C9.43327944 168.82311735 5.70454292 169.23890257 1 169 C4.56944815 166.05619313 8.26043202 163.47748018 12.125 160.9375 C33.62772032 146.3334413 45.18239178 124.06280454 50.61328125 99.19140625 C53.83860367 72.57435152 47.6941945 48.54320644 31.8046875 27.02734375 C24.08381165 17.24846441 15.44592857 10.37928019 4.94140625 3.8828125 C2 2 2 2 0 0 Z " fill="#F0C101" transform="translate(185,80)"/>
<path d="M0 0 C6.8490766 4.57433791 10.68269865 10.08700324 13 18 C14.32275863 26.39307907 12.32112901 33.61055222 7.90234375 40.78125 C3.67780333 46.39487659 -3.17255542 50.55573288 -10 52 C-20.15152903 53.09187958 -26.41675254 50.59809281 -34.8125 45.1875 C-40.42810815 39.57189185 -43.98100005 32.67112374 -44.3125 24.6875 C-44.10754349 16.57122207 -41.11137451 9.27918572 -35.46875 3.40625 C-25.68806945 -5.66310833 -11.4314385 -7.28835548 0 0 Z " fill="#5F276D" transform="translate(428,369)"/>
<path d="M0 0 C2.28104482 1.2057516 4.19365648 2.49851129 6.19140625 4.12890625 C7.15820312 4.90814453 7.15820312 4.90814453 8.14453125 5.703125 C13.48792596 10.51891561 16.63031371 15.84840647 17.5703125 23.01953125 C17.92981265 32.06501892 15.68897123 39.29084191 10.12890625 46.44140625 C4.3371684 52.51656957 -2.65339897 55.37609732 -10.99609375 55.62890625 C-20.35877955 55.13486491 -25.79788052 52.14358106 -32.59765625 45.63671875 C-38.665864 38.75369865 -39.47738228 31.37021754 -39.1953125 22.40234375 C-38.66504482 17.91381529 -37.41794029 14.78199141 -34.80859375 11.12890625 C-34.06609375 10.07703125 -33.32359375 9.02515625 -32.55859375 7.94140625 C-23.96495994 -0.84753742 -11.80221322 -3.66049172 0 0 Z " fill="#5F276D" transform="translate(135.80859375,365.87109375)"/>
<path d="M0 0 C0.76183594 -0.0309375 1.52367187 -0.061875 2.30859375 -0.09375 C4.5625 0.5 4.5625 0.5 6.67456055 2.24975586 C9.62833885 7.33492986 9.09339198 12.32170555 9.0234375 18.09765625 C9.02206284 19.93728188 9.02206284 19.93728188 9.0206604 21.81407166 C9.0146242 24.40383785 8.99887787 26.99359706 8.97412109 29.58325195 C8.93760395 33.55120509 8.93310189 37.51822446 8.93359375 41.48632812 C8.92376291 44.00261225 8.91210606 46.51889004 8.8984375 49.03515625 C8.89621185 50.22375748 8.89398621 51.4123587 8.89169312 52.63697815 C8.87893341 53.74169968 8.86617371 54.8464212 8.85302734 55.98461914 C8.84159195 57.44092491 8.84159195 57.44092491 8.82992554 58.926651 C8.54815529 61.63803449 8.05336317 63.23020489 6.5625 65.5 C3.34189509 67.64706994 2.42871079 67.76075183 -1.28857422 67.80639648 C-2.27324677 67.82238388 -3.25791931 67.83837128 -4.27243042 67.85484314 C-5.33495026 67.86020584 -6.39747009 67.86556854 -7.4921875 67.87109375 C-9.13273605 67.88463646 -9.13273605 67.88463646 -10.806427 67.89845276 C-13.12141171 67.91296797 -15.43643757 67.92184514 -17.75146484 67.92553711 C-21.29204502 67.93743128 -24.83088163 67.98660531 -28.37109375 68.03710938 C-30.61978315 68.04657364 -32.86848327 68.05380866 -35.1171875 68.05859375 C-36.17565887 68.07812607 -37.23413025 68.09765839 -38.32467651 68.11778259 C-45.65156774 68.07284627 -45.65156774 68.07284627 -49.60986328 65.18774414 C-52.00859436 61.66014189 -52.1220495 59.68335805 -51.4375 55.5 C-49.97363281 53.30957031 -49.97363281 53.30957031 -47.4375 51.5 C-44.38561718 50.94960286 -41.38918805 51.03464623 -38.296875 51.109375 C-37.41469299 51.11503479 -36.53251099 51.12069458 -35.62359619 51.12652588 C-32.81100787 51.14888409 -29.99970205 51.19907868 -27.1875 51.25 C-25.27866426 51.27006575 -23.36980851 51.28831639 -21.4609375 51.3046875 C-16.78596555 51.348747 -12.11195008 51.41777016 -7.4375 51.5 C-7.44416183 50.90531418 -7.45082367 50.31062836 -7.45768738 49.69792175 C-7.5239728 43.51766355 -7.56927225 37.33750604 -7.60229492 31.15698242 C-7.61739676 28.84932352 -7.63787969 26.54169339 -7.66381836 24.23413086 C-7.70013975 20.92033801 -7.71721236 17.60692408 -7.73046875 14.29296875 C-7.74595261 13.2585112 -7.76143646 12.22405365 -7.77738953 11.1582489 C-7.77761612 10.1974794 -7.77784271 9.2367099 -7.77807617 8.24682617 C-7.78473801 7.40077316 -7.79139984 6.55472015 -7.79826355 5.68302917 C-7.05297536 1.17318923 -4.24591698 0.0572805 0 0 Z " fill="#62296B" transform="translate(173.4375,105.5)"/>
<path d="M0 0 C2.68334961 1.32714844 2.68334961 1.32714844 5 4 C5.75693207 7.74849173 5.67615818 11.4528089 5.62890625 15.265625 C5.63131821 16.37299011 5.63373016 17.48035522 5.63621521 18.62127686 C5.63523579 20.96483945 5.62181977 23.30842491 5.59692383 25.65185547 C5.56275697 29.22314034 5.57622662 32.7919313 5.59570312 36.36328125 C5.58880054 38.64323963 5.57912443 40.92319164 5.56640625 43.203125 C5.57136612 44.26484924 5.57632599 45.32657349 5.58143616 46.42047119 C5.46055576 54.11115477 4.18700996 59.89470825 -1.4375 65.375 C-7.84938715 69.44107478 -13.59414713 69.3977311 -21 69.4375 C-22.08023437 69.47037109 -23.16046875 69.50324219 -24.2734375 69.53710938 C-32.17592834 69.59076826 -32.17592834 69.59076826 -36.21484375 66.6953125 C-38.55697738 63.15904948 -38.6810675 61.16207916 -38 57 C-36.66796875 54.83203125 -36.66796875 54.83203125 -34 53 C-30.25793312 52.35753095 -26.54060204 52.3029145 -22.75 52.25 C-21.203125 52.20552734 -21.203125 52.20552734 -19.625 52.16015625 C-17.08325505 52.08955222 -14.54242217 52.03680991 -12 52 C-11.99635437 51.40753479 -11.99270874 50.81506958 -11.98895264 50.20465088 C-11.94715293 44.04000577 -11.87782542 37.87610694 -11.79248047 31.71191406 C-11.76424896 29.41120873 -11.74304534 27.11040601 -11.72900391 24.80957031 C-11.70760514 21.50274721 -11.66096892 18.19709774 -11.609375 14.890625 C-11.60753204 13.3466806 -11.60753204 13.3466806 -11.60565186 11.77154541 C-11.45985343 4.66822837 -11.45985343 4.66822837 -9.17675781 1.35058594 C-5.93236279 -0.66242363 -3.74024781 -0.52494706 0 0 Z " fill="#5E276E" transform="translate(298,298)"/>
<path d="M0 0 C73.51085142 0 73.51085142 0 90.0625 13.0625 C90.58996826 13.47806152 91.11743652 13.89362305 91.66088867 14.32177734 C95.64242771 17.5304839 98.91073029 20.93981695 102 25 C93 22 93 22 91.26086426 21.26904297 C84.11437712 18.47402576 77.15397886 18.52533789 69.55859375 18.48828125 C68.18138562 18.47140388 66.8041926 18.45324961 65.42701721 18.43388367 C61.83178433 18.38670854 58.23661275 18.35669061 54.64117432 18.33044434 C50.96052956 18.30047315 47.28009543 18.2540005 43.59960938 18.20898438 C36.39982695 18.12332164 29.20007388 18.05734208 22 18 C22 12.39 22 6.78 22 1 C15.07 1 8.14 1 1 1 C1 64.36 1 127.72 1 193 C6.94 193 12.88 193 19 193 C19 193.33 19 193.66 19 194 C12.73 194 6.46 194 0 194 C0 129.98 0 65.96 0 0 Z " fill="#F04B77" transform="translate(338,191)"/>
<path d="M0 0 C1.63001953 0.01353516 1.63001953 0.01353516 3.29296875 0.02734375 C4.12441406 0.03894531 4.95585937 0.05054688 5.8125 0.0625 C5.131875 0.701875 4.45125 1.34125 3.75 2 C1.39291268 4.32407489 -0.49673259 6.82183145 -2.4375 9.5 C-5.54950614 13.60621378 -8.8257314 16.04605896 -13.17578125 18.734375 C-18.28194949 22.10543753 -21.1621449 27.61357831 -22.875 33.375 C-23.80879462 41.40563373 -23.08085397 46.88838272 -19.1875 54.0625 C-18.65125 55.09375 -18.115 56.125 -17.5625 57.1875 C-14.72019211 60.62818849 -11.55731407 62.61179482 -7.859375 65.0625 C-3.31731336 68.46240579 0.1435119 72.77075932 3.8125 77.0625 C4.80032646 78.07452711 5.7951127 79.08019502 6.8125 80.0625 C-4.45139252 80.84683294 -13.42172147 78.37850579 -22.125 71.02734375 C-31.18509426 62.39623122 -36.3307305 52.19267329 -36.8125 39.5625 C-36.30026206 26.80908879 -31.44763616 17.67252386 -22.1875 9.0625 C-19.27294704 6.59009284 -16.50738988 4.52989808 -13.0625 2.875 C-12.39992188 2.55144531 -11.73734375 2.22789062 -11.0546875 1.89453125 C-7.19359536 0.17400274 -4.19118234 -0.04506648 0 0 Z " fill="#A2A1A3" transform="translate(408.1875,352.9375)"/>
<path d="M0 0 C-1.43193738 1.67059361 -2.86503919 3.33994064 -4.3046875 5.00390625 C-5.35547344 6.24112195 -6.38605489 7.49620049 -7.3828125 8.77734375 C-10.26825898 12.41300631 -13.16588202 14.89170959 -17.0625 17.4375 C-22.76989888 21.24529775 -25.84256925 25.52770776 -28 32 C-28.67363924 40.49227171 -28.78262344 48.6674898 -24 56 C-20.74275281 59.5501006 -17.30212386 62.9259608 -12.8984375 64.98046875 C-10.55430437 66.23935506 -9.60928344 67.61961797 -8.125 69.8125 C-5.44443166 73.5735015 -2.61806129 76.15723756 1 79 C1 79.33 1 79.66 1 80 C-10.61722186 81.02908461 -20.11363146 77.39873827 -29.03515625 69.9453125 C-36.28998691 62.76259745 -41.435594 52.97180946 -41.60766602 42.70654297 C-41.59276123 41.87525879 -41.57785645 41.04397461 -41.5625 40.1875 C-41.55081787 39.3123877 -41.53913574 38.43727539 -41.52709961 37.53564453 C-41.14501303 26.27293979 -37.29026195 18.29416461 -29.46484375 10.1953125 C-20.56779558 2.27115866 -11.7467207 -0.42543455 0 0 Z " fill="#A2A1A3" transform="translate(126,353)"/>
<path d="M0 0 C7.26 0 14.52 0 22 0 C22 16.83 22 33.66 22 51 C14.74 51 7.48 51 0 51 C0 34.17 0 17.34 0 0 Z " fill="#FFEFEE" transform="translate(370,225)"/>
<path d="M0 0 C10.34651275 -1.05100017 19.5943201 2.18854977 27.9375 8.3125 C36.38137513 15.45731741 42.17808824 25.06852947 44 36 C44 41.28 44 46.56 44 52 C16.61 52 -10.78 52 -39 52 C-39 51.67 -39 51.34 -39 51 C-18.87 51 1.26 51 22 51 C20.47008062 28.05120928 16.04840169 15.89555977 0 0 Z " fill="#FBCCCD" transform="translate(409,225)"/>
<path d="M0 0 C1.22783203 -0.00644531 2.45566406 -0.01289063 3.72070312 -0.01953125 C5.00009766 -0.00019531 6.27949219 0.01914062 7.59765625 0.0390625 C8.87318359 0.01972656 10.14871094 0.00039063 11.46289062 -0.01953125 C21.86010393 0.03499006 21.86010393 0.03499006 25.0390625 2.9765625 C26.66015625 5.6640625 26.66015625 5.6640625 26.66015625 9.2890625 C25.71471866 12.47991437 25.29644178 13.76593692 22.66015625 15.6640625 C18.32855572 17.82986277 12.60541481 16.98287856 7.84765625 17.0390625 C6.65849609 17.07644531 5.46933594 17.11382812 4.24414062 17.15234375 C-5.55271397 17.25135744 -5.55271397 17.25135744 -8.62890625 14.328125 C-10.73879963 11.04285722 -11.05870867 9.49800873 -10.33984375 5.6640625 C-7.40625113 0.92783774 -5.5151228 0.02776401 0 0 Z " fill="#62276D" transform="translate(366.33984375,305.3359375)"/>
<path d="M0 0 C3.86597969 1.86320682 6.32084881 4.11384248 7.7890625 8.19140625 C8.49841483 12.30147708 8.21052318 14.54526993 6.4375 18.375 C2.98245115 22.09582184 0.02378891 23.70486412 -5 24.4375 C-9.83396028 23.73254746 -12.74745216 21.41416691 -15.9375 17.8125 C-17.51248514 13.64342168 -17.30960185 10.24132418 -16 6 C-12.45363931 -0.38866448 -6.85683819 -1.58983472 0 0 Z " fill="#857F8D" transform="translate(417,381)"/>
<path d="M0 0 C3.50252011 2.04313673 5.77361702 4.09787233 7 8 C7.45599783 13.01597611 7.12987123 16.00671602 4 20 C0.97967037 23.19291989 -0.52537867 23.93973063 -4.9375 24.5 C-9.17514217 24.27570136 -11.76348747 22.7741536 -15 20 C-17.54481052 15.8198645 -17.83428051 11.77439737 -17 7 C-12.98025285 -0.20266962 -7.6489036 -0.87932278 0 0 Z " fill="#86808D" transform="translate(130,381)"/>
<path d="M0 0 C0.91974609 -0.00386719 1.83949219 -0.00773437 2.78710938 -0.01171875 C3.74552734 -0.00011719 4.70394531 0.01148438 5.69140625 0.0234375 C7.12323242 0.00603516 7.12323242 0.00603516 8.58398438 -0.01171875 C9.50501953 -0.00785156 10.42605469 -0.00398438 11.375 0 C12.63461548 0.00507568 12.63461548 0.00507568 13.91967773 0.01025391 C16.76631501 0.48365138 18.15481827 1.44831132 20.25390625 3.3984375 C20.8203125 5.51953125 20.8203125 5.51953125 20.81640625 7.8359375 C20.83832031 8.59777344 20.86023438 9.35960937 20.8828125 10.14453125 C19.90666357 13.64290349 18.37338903 14.59920034 15.25390625 16.3984375 C12.2361097 16.96196892 9.31611696 16.95809096 6.25390625 16.8984375 C5.45984375 16.91390625 4.66578125 16.929375 3.84765625 16.9453125 C-0.09162349 16.91905064 -2.3031561 16.65358328 -5.77734375 14.65234375 C-7.99205093 12.11685557 -8.38055707 11.1470967 -8.24609375 7.8359375 C-8.23578125 7.07152344 -8.22546875 6.30710937 -8.21484375 5.51953125 C-7.19286845 0.89509302 -4.40170311 0.01776074 0 0 Z " fill="#5D2870" transform="translate(224.74609375,350.6015625)"/>
<path d="M0 0 C5.71729475 2.69049165 6.67814515 5.23752686 11 11 C4.4 11 -2.2 11 -9 11 C-6.75 5.375 -6.75 5.375 -3.375 2.6875 C-2.74335938 2.17574219 -2.11171875 1.66398437 -1.4609375 1.13671875 C-0.73777344 0.57404297 -0.73777344 0.57404297 0 0 Z " fill="#857E8C" transform="translate(412,355)"/>
<path d="M0 0 C3.59634744 3.49359465 6.83451967 7.11098131 10 11 C7.703463 12.1482685 6.41686833 12.11561175 3.8671875 12.09765625 C3.06152344 12.09443359 2.25585938 12.09121094 1.42578125 12.08789062 C0.58402344 12.07951172 -0.25773437 12.07113281 -1.125 12.0625 C-1.97449219 12.05798828 -2.82398437 12.05347656 -3.69921875 12.04882812 C-5.79950909 12.03702874 -7.8997633 12.01909306 -10 12 C-8.52278578 8.54798361 -6.56205999 6.35038064 -3.875 3.75 C-3.15054688 3.04359375 -2.42609375 2.3371875 -1.6796875 1.609375 C-1.12539062 1.07828125 -0.57109375 0.5471875 0 0 Z " fill="#857F8D" transform="translate(125,354)"/>
<path d="M0 0 C0.57975586 0.16298584 1.15951172 0.32597168 1.75683594 0.49389648 C5.22673123 1.27677556 8.712623 1.10312359 12.25 1.0625 C13.36761719 1.05573242 13.36761719 1.05573242 14.5078125 1.04882812 C16.3385764 1.03709246 18.16929873 1.0191585 20 1 C17.78884856 5.72940725 14.69340843 9.30659157 11 13 C9.53548421 11.58972554 8.0786107 10.17151204 6.625 8.75 C5.81289063 7.96109375 5.00078125 7.1721875 4.1640625 6.359375 C2.24416857 4.26620545 1.08366315 2.59602821 0 0 Z " fill="#86808D" transform="translate(402,419)"/>
<path d="M0 0 C6.6 0 13.2 0 20 0 C14 8 14 8 11 10 C8.18628106 9.81992199 7.13910548 9.13118891 5.078125 7.1875 C4.47484375 6.465625 3.8715625 5.74375 3.25 5 C2.63640625 4.278125 2.0228125 3.55625 1.390625 2.8125 C0 1 0 1 0 0 Z " fill="#87818E" transform="translate(115,420)"/>
</svg>
